<?xml version="1.0" encoding="utf-8"?>
<!-- Generator: Adobe Illustrator 16.0.0, SVG Export Plug-In . SVG Version: 6.00 Build 0)  -->
<!DOCTYPE svg PUBLIC "-//W3C//DTD SVG 1.1//EN" "http://www.w3.org/Graphics/SVG/1.1/DTD/svg11.dtd">
<svg version="1.1" id="圖層_1" xmlns="http://www.w3.org/2000/svg" xmlns:xlink="http://www.w3.org/1999/xlink" x="0px" y="0px"
	 width="92px" height="92px" viewBox="0 0 92 92" enable-background="new 0 0 92 92" xml:space="preserve">
<g>
	<path fill="#FFFFFF" d="M86.666,0H5.346C2.398,0,0,2.398,0,5.346v81.321C0,89.612,2.398,92,5.346,92h81.32
		C89.602,92,92,89.612,92,86.667V5.346C92,2.398,89.602,0,86.666,0z M36.274,32.688C18.772,33.004,8.127,34.54,4.077,35.239v-3.809
		c3.062-0.559,11.889-1.933,26.737-2.457C32.501,30.267,34.355,31.571,36.274,32.688z M21.613,19.844
		c-2.143-1.142-4.226-2.282-6.252-3.354c-1.676-0.873-3.307-1.699-4.893-2.422c-2.211-1.024-4.354-1.84-6.391-2.34V5.346
		c0-0.699,0.568-1.27,1.269-1.27h81.32c0.688,0,1.258,0.571,1.258,1.27v6.648c-2.365,0.513-4.705,1.293-7.023,2.235
		c-1.84,0.746-3.668,1.598-5.483,2.494c-2.19,1.082-4.356,2.246-6.523,3.389c-1.699,0.896-3.376,1.781-5.054,2.62
		c-2.572,1.28-5.147,2.456-7.721,3.354c-3.261,1.152-6.509,1.876-9.793,1.876c-3.808,0-7.569-0.781-11.238-2.016
		c-2.841-0.943-5.625-2.154-8.35-3.482C25.002,21.626,23.292,20.739,21.613,19.844z M82.02,17.246h0.012
		c0.012,0.013,0.012,0.013,0.023,0c1.922,0.175,3.877,0.351,5.869,0.548v3.819c-4.857-0.477-9.502-0.86-13.939-1.176
		C76.686,19.332,79.504,18.226,82.02,17.246z M4.077,17.888c1.396-0.233,3.457-0.549,6.193-0.873c2.34,0.85,4.974,1.885,7.606,3.098
		c-6.535,0.512-11.123,1.141-13.799,1.571V17.888z M22.859,22.661c1.001,0.618,2.561,1.957,4.495,3.553
		c-12.262,0.559-19.97,1.688-23.277,2.26V24.63C7.115,24.118,13.345,23.232,22.859,22.661z M60.416,29.149
		c8.257,0.349,17.424,0.955,27.508,1.922v3.854c-12.182-1.164-23.024-1.805-32.55-2.096C57.132,31.722,58.822,30.429,60.416,29.149z
		 M63.724,26.389c1.701-1.433,3.202-2.667,4.438-3.413c6.147,0.373,12.728,0.873,19.763,1.562v3.622
		C79.166,27.319,71.107,26.749,63.724,26.389z M91.184,87.947h-1.221H70.99v-0.023h-1.467v0.023h-5.498v1.793v0.512h-8.021v-0.406
		V89.52v-1.572h1.338v-0.023h-1.338h-6.71h-5.879c-0.862,0.303-1.817,0.441-2.83,0.441c-1.329,0-2.411-0.139-3.355-0.441h-3.749
		c-0.607-0.35-1.189-0.734-1.747-1.152c-0.548,0.465-1.153,0.826-1.829,1.071c-0.082,0.034-0.164,0.058-0.257,0.081
		c-0.862,0.303-1.817,0.441-2.841,0.441c-1.317,0-2.411-0.139-3.344-0.441c-0.093-0.023-0.187-0.059-0.28-0.092
		c-0.941-0.328-1.722-0.852-2.329-1.527v1.619h-6.742v-1.572c-0.641,0.675-1.41,1.176-2.27,1.491
		c-0.082,0.034-0.164,0.058-0.257,0.081c-0.862,0.303-1.829,0.441-2.841,0.441c-1.317,0-2.411-0.139-3.355-0.441
		c-0.093-0.023-0.187-0.059-0.28-0.092c-0.232-0.082-0.453-0.176-0.664-0.28l-0.011-0.011c-0.769-0.373-1.408-0.887-1.909-1.538
		c-0.014-0.012-0.025-0.024-0.036-0.036c-0.605-0.768-1.035-1.606-1.303-2.479c-0.246-0.839-0.373-2.073-0.373-3.763v-7.662
		c0-2.189,0.198-3.819,0.582-4.973c0.244-0.723,0.617-1.373,1.13-1.934c0.407-0.466,0.896-0.861,1.467-1.211
		c0.022-0.012,0.057-0.035,0.082-0.047c1.198-0.697,2.631-1.06,4.273-1.06c1.363,0,2.607,0.257,3.703,0.757
		c1.117,0.512,1.99,1.177,2.584,1.957c0.571,0.769,0.966,1.631,1.165,2.586c0.187,0.861,0.28,2.143,0.28,3.924v7.313
		c0,0.489-0.012,0.942-0.023,1.362h2.852c-0.022-0.314-0.022-0.651-0.022-1.014v-7.662c0-2.189,0.187-3.819,0.571-4.973
		c0.443-1.316,1.317-2.364,2.609-3.145c0.407-0.244,0.839-0.442,1.292-0.605c2.167-8.549,8.361-17.224,13.777-23.535
		c-18.958,0.349-29.382,1.759-33.06,2.375v-3.983c3.703-0.676,15.849-2.538,36.881-2.643c0.15-0.151,0.291-0.303,0.43-0.455
		c0.908-0.954,1.724-1.781,2.434-2.468c1.538-1.526,2.504-2.388,2.504-2.388s0.989,0.873,2.549,2.434
		c0.676,0.652,1.445,1.443,2.307,2.328c0.187,0.211,0.396,0.422,0.594,0.643c10.354,0.221,22.395,0.873,36.148,2.189v4.273
		c-3.867-0.663-13.637-1.957-32.409-2.306c6.241,7.278,13.521,17.678,14.476,27.412h7.58v0.012c0.583-0.221,1.223-0.336,1.887-0.336
		c1.305,0,2.457,0.441,3.389,1.291c0.246-0.221,0.5-0.418,0.768-0.582c0.781-0.465,1.643-0.709,2.588-0.709
		c0.615,0,1.186,0.082,1.723,0.268c0.49,0.15,0.941,0.384,1.338,0.699c0.268,0.197,0.5,0.418,0.701,0.664
		c0.451,0.5,0.766,1.082,0.93,1.734c0.197,0.779,0.291,1.934,0.291,3.54V87.947z"/>
	<path fill="#FFFFFF" d="M13.543,66.379c-0.455-0.605-1.142-1.129-2.061-1.547c-0.921-0.422-1.968-0.631-3.132-0.631
		c-1.421,0-2.645,0.303-3.646,0.908c-0.232,0.141-0.443,0.292-0.627,0.443c-0.665,0.535-1.131,1.199-1.388,1.979
		c-0.057,0.187-0.116,0.385-0.162,0.594c-0.234,0.967-0.339,2.282-0.339,3.937v7.662c0,1.538,0.104,2.668,0.314,3.378
		c0.011,0.022,0.011,0.047,0.025,0.071c0.209,0.687,0.546,1.338,1.035,1.955c0.152,0.198,0.328,0.385,0.514,0.535
		c0.418,0.385,0.918,0.676,1.501,0.886c0.839,0.302,1.899,0.454,3.168,0.454c0.967,0,1.84-0.152,2.62-0.43
		c0.78-0.291,1.444-0.77,2.001-1.434c0.316-0.373,0.56-0.769,0.746-1.176v-3.227h0.583c0.011-0.42,0.022-0.873,0.022-1.362v-7.313
		c0-1.666-0.082-2.877-0.243-3.645C14.312,67.661,13.998,66.985,13.543,66.379z M9.408,81.088c0,1.082-0.068,1.771-0.184,2.072
		c-0.129,0.315-0.384,0.466-0.78,0.466c-0.398,0-0.653-0.128-0.769-0.396C7.557,82.975,7.5,82.207,7.5,80.925V70.211
		c0-1.129,0.057-1.852,0.187-2.166c0.127-0.303,0.396-0.466,0.78-0.466c0.407,0,0.664,0.151,0.78,0.442
		c0.104,0.291,0.161,1.025,0.161,2.189V81.088z"/>
	<path fill="#FFFFFF" d="M19.004,82.101h-3.027h-0.5v2.144v2.341h4.017v-2.423c-0.093-0.221-0.162-0.455-0.232-0.675
		C19.145,83.114,19.063,82.648,19.004,82.101z"/>
	<path fill="#FFFFFF" d="M32.538,68.418c-0.164-0.757-0.466-1.433-0.921-2.039c-0.464-0.605-1.153-1.129-2.072-1.547
		c-0.921-0.422-1.956-0.631-3.132-0.631c-1.317,0-2.47,0.258-3.425,0.792c-0.08,0.036-0.15,0.07-0.221,0.116
		c-1,0.607-1.676,1.41-2.015,2.423c-0.336,1.002-0.5,2.503-0.5,4.53v7.662c0,0.362,0,0.699,0.023,1.014
		c0.036,1.025,0.129,1.816,0.291,2.364c0.082,0.256,0.175,0.512,0.291,0.758c0.198,0.44,0.455,0.86,0.769,1.269
		c0.502,0.641,1.176,1.117,2.015,1.421c0.839,0.302,1.899,0.454,3.168,0.454c0.967,0,1.84-0.152,2.62-0.43
		c0.43-0.164,0.826-0.385,1.188-0.664c0.291-0.21,0.571-0.479,0.814-0.77c0.548-0.652,0.91-1.362,1.097-2.131
		c0.082-0.361,0.15-0.827,0.187-1.398c0.045-0.617,0.068-1.361,0.068-2.235v-7.313c0-0.803-0.022-1.502-0.057-2.096
		C32.688,69.326,32.62,68.814,32.538,68.418z M27.286,83.16c-0.129,0.315-0.384,0.466-0.78,0.466c-0.384,0-0.641-0.128-0.769-0.396
		c-0.116-0.256-0.175-1.023-0.175-2.306v-0.85v-9.864c0-1.129,0.071-1.852,0.187-2.166c0.139-0.303,0.396-0.466,0.792-0.466
		c0.396,0,0.653,0.151,0.769,0.442c0.104,0.291,0.164,1.025,0.164,2.189v10.877c0,0.687-0.025,1.223-0.07,1.596
		C27.368,82.894,27.331,83.057,27.286,83.16z"/>
	<path fill="#FFFFFF" d="M45.627,67.043l0.15-0.035c-0.116-0.221-0.243-0.43-0.396-0.629c-0.455-0.605-1.153-1.129-2.072-1.547
		c-0.921-0.422-1.956-0.631-3.121-0.631c-1.433,0-2.657,0.303-3.657,0.908c-1.001,0.607-1.665,1.41-2.004,2.423
		c-0.221,0.618-0.359,1.433-0.441,2.435v0.035c-0.048,0.615-0.07,1.303-0.07,2.061v7.662c0,0.688,0.022,1.305,0.07,1.829
		c0.045,0.64,0.127,1.153,0.244,1.549c0.209,0.71,0.571,1.386,1.071,2.026c0.5,0.641,1.165,1.117,2.004,1.421
		c0.851,0.302,1.899,0.454,3.18,0.454c0.955,0,1.829-0.152,2.609-0.43c0.78-0.291,1.456-0.77,2.001-1.434
		c0.548-0.652,0.921-1.362,1.096-2.131c0.173-0.758,0.255-1.968,0.255-3.634v-7.313h-0.919V67.043z M41.235,81.088
		c0,1.082-0.057,1.771-0.184,2.072c-0.119,0.315-0.385,0.466-0.769,0.466c-0.396,0-0.653-0.128-0.78-0.396
		c-0.118-0.256-0.175-1.023-0.175-2.306V70.211c0-1.129,0.068-1.852,0.198-2.166c0.127-0.303,0.384-0.466,0.78-0.466
		c0.407,0,0.664,0.151,0.769,0.442c0.105,0.291,0.162,1.025,0.162,2.189V81.088z"/>
	<path fill="#FFFFFF" d="M47.595,67.975c-0.198,0.07-0.396,0.116-0.605,0.164v2.561h0.908c1.015,0.023,1.677,0.117,1.993,0.27
		c0.359,0.174,0.582,0.43,0.65,0.779c0.082,0.338,0.129,1.363,0.129,3.063v11.774h5.309V64.621h-3.132
		C51.611,66.264,49.865,67.381,47.595,67.975z"/>
	<path fill="#FFFFFF" d="M64.317,82.193c0,0.629-0.068,1.037-0.198,1.234c-0.139,0.198-0.348,0.291-0.639,0.291
		c-0.537,0-0.816-0.406-0.816-1.221V68.58h-5.298v19.344v0.967h0.022h5.275v-0.967v-1.537c0.604-0.186,1.142-0.617,1.619-1.305
		l-0.07,1.503h5.311v-12.38V68.58h-5.206V82.193z"/>
	<path fill="#FFFFFF" d="M88.436,68.941c-0.164-0.115-0.326-0.221-0.512-0.314c-0.49-0.245-1.072-0.373-1.723-0.373
		c-0.688,0-1.318,0.176-1.877,0.513c-0.559,0.339-1.059,0.851-1.514,1.526c-0.816-1.352-1.934-2.039-3.354-2.039
		c-0.722,0-1.375,0.176-1.945,0.513c-0.57,0.339-1.061,0.851-1.467,1.526l0.094-1.713H70.99h-0.104v18.005h0.104h5.055V74.1
		c0-0.861,0-1.432,0.022-1.699c0.011-0.268,0.104-0.489,0.28-0.675c0.163-0.187,0.361-0.28,0.604-0.28
		c0.373,0,0.607,0.174,0.689,0.535c0.079,0.35,0.127,1.41,0.127,3.168v11.437h5.147V74.846c0-1.537,0.059-2.492,0.164-2.854
		c0.115-0.359,0.359-0.547,0.732-0.547s0.604,0.188,0.709,0.547c0.094,0.373,0.152,1.316,0.152,2.854v11.739h3.25h1.896V73.798
		c0-1.479-0.08-2.538-0.242-3.202C89.402,69.942,89.029,69.384,88.436,68.941z"/>
</g>
</svg>
