<?xml version="1.0" encoding="utf-8"?>
<!-- Generator: Adobe Illustrator 16.0.0, SVG Export Plug-In . SVG Version: 6.00 Build 0)  -->
<!DOCTYPE svg PUBLIC "-//W3C//DTD SVG 1.1//EN" "http://www.w3.org/Graphics/SVG/1.1/DTD/svg11.dtd">
<svg version="1.1" id="圖層_1" xmlns="http://www.w3.org/2000/svg" xmlns:xlink="http://www.w3.org/1999/xlink" x="0px" y="0px"
	 width="92px" height="92px" viewBox="0 0 92 92" enable-background="new 0 0 92 92" xml:space="preserve">
<g>
	<path fill="#FFFFFF" d="M26.971,52.69c-2.219-0.034-4.444,0-6.801,0V36.896c0-0.174,0.072-0.418,0-0.523
		c-0.801-1.636-2.47-2.186-3.994-1.179c-0.867,0.59-1.112,1.629-1.112,2.603v14.583c0,1.251,0.067,2.463,0.278,3.643
		c0.065,0.522,0.556,1.079,0.968,1.462c0.628,0.518,1.462,0.483,2.224,0.483c2.775,0.034,5.557,0,8.332-0.032
		c0.662,0,1.355-0.072,1.913-0.49c0.695-0.482,1.317-1.801,1.105-2.463C29.436,53.351,28.674,52.723,26.971,52.69z"/>
	<path fill="#FFFFFF" d="M35.792,34.981c-0.695-0.378-1.457-0.483-2.186-0.278c-1.079,0.245-1.947,0.802-1.914,2.259
		c0.072,3.125,0.039,6.25,0.039,9.376v9.649c0,0.316,0.171,0.661,0.307,0.975c0.355,0.66,1.012,0.9,1.708,0.973
		c1.523,0.206,3.263-0.352,3.086-2.503V36.756C36.832,35.955,36.487,35.332,35.792,34.981z"/>
	<path fill="#FFFFFF" d="M58.777,36.199c-0.521-1.424-2.535-1.979-3.82-1.045c-0.869,0.694-1.111,1.668-1.111,2.747
		c0.033,3.226,0.033,6.424,0.033,9.788c-0.867-1.112-1.596-2.152-2.358-3.192c-1.04-1.316-2.085-2.642-3.127-3.992
		c-1.178-1.564-2.356-3.16-3.608-4.689c-0.902-1.112-2.326-1.528-3.648-0.622c-0.9,0.59-1.112,1.528-1.146,2.536
		c-0.033,5.723,0,11.451,0.033,17.218c0,0.484,0.072,1.074,0.278,1.529c0.451,0.968,1.285,1.458,2.325,1.458
		c0.807-0.034,1.462-0.278,2.019-0.973c0.489-0.624,0.589-1.358,0.589-2.081c0.033-2.814,0-5.628,0-8.442v-1.385
		c1.079,1.385,2.047,2.636,2.987,3.887c0.801,1.041,1.594,2.047,2.396,3.055c1.318,1.668,2.635,3.369,3.922,5.038
		c0.762,0.968,1.907,0.968,2.92,0.656c0.834-0.245,1.596-1.352,1.596-2.325c0-5.9,0-11.808-0.033-17.675
		C59.023,37.206,58.949,36.684,58.777,36.199z"/>
	<path fill="#FFFFFF" d="M75.58,53.073c-0.59-0.244-1.285-0.383-1.941-0.417c-2.014-0.033-4.026,0-6.112,0v-3.854
		c2.331,0,4.616-0.066,6.874,0.034c1.63,0.104,2.537-1.457,2.537-2.57c0-1.49-1.391-2.675-2.987-2.603h-5.94
		c-0.311,0-0.518-0.033-0.518-0.417c0.034-1.079,0-2.186,0-3.331c2.326,0,4.51-0.034,6.736,0.033
		c1.662,0.033,2.879-1.497,2.709-2.847c-0.24-1.631-1.254-2.398-2.814-2.433c-2.986-0.065-6.002-0.031-8.987,0
		c-1.568,0.034-2.921,1.008-2.887,2.849c0.105,5.935,0,11.908,0.031,17.847c0,0.418,0.074,0.868,0.28,1.252
		c0.59,1.107,1.668,1.351,2.78,1.351c2.53,0.034,5.106,0,7.67-0.032c0.556,0,1.112-0.072,1.702-0.106
		c1.284-0.033,1.946-1.006,2.19-2.118C77.148,54.736,76.553,53.523,75.58,53.073z"/>
	<path fill="#FFFFFF" d="M90.916,2.132c-0.162-0.233-0.361-0.443-0.57-0.641C89.4,0.57,88.096,0,86.661,0H5.34
		C2.402,0,0,2.4,0,5.338v81.323C0,89.598,2.402,92,5.34,92h81.321c1.679,0,3.183-0.781,4.161-2.006h0.094v-0.128
		C91.604,88.969,92,87.86,92,86.661V5.338C92,4.138,91.604,3.03,90.916,2.132z M47.889,87.92h-3.777
		C22.266,86.952,4.768,69.269,4.081,47.362v-2.704C4.792,22.125,23.292,4.08,46,4.08S87.209,22.125,87.92,44.658v2.704
		C87.232,69.269,69.734,86.952,47.889,87.92z"/>
</g>
</svg>
