<?xml version="1.0" encoding="utf-8"?>
<!-- Generator: Adobe Illustrator 16.0.0, SVG Export Plug-In . SVG Version: 6.00 Build 0)  -->
<!DOCTYPE svg PUBLIC "-//W3C//DTD SVG 1.1//EN" "http://www.w3.org/Graphics/SVG/1.1/DTD/svg11.dtd">
<svg version="1.1" id="圖層_1" xmlns="http://www.w3.org/2000/svg" xmlns:xlink="http://www.w3.org/1999/xlink" x="0px" y="0px"
	 width="92px" height="92px" viewBox="0 0 92 92" enable-background="new 0 0 92 92" xml:space="preserve">
<g>
	<path fill="#FFFFFF" d="M86.403,92H5.594C2.509,92,0,89.49,0,86.405V5.595C0,2.509,2.509,0,5.594,0h80.81
		C89.492,0,92,2.509,92,5.595v80.811C92,89.49,89.492,92,86.403,92z M5.594,4.629c-0.533,0-0.965,0.433-0.965,0.966v80.811
		c0,0.533,0.432,0.966,0.965,0.966h80.81c0.532,0,0.967-0.433,0.967-0.966V5.595c0-0.533-0.435-0.966-0.967-0.966H5.594z"/>
	<g>
		<polygon fill="#FFFFFF" points="8.6,69.907 8.665,21.228 16.706,21.228 25.345,44.189 25.345,21.228 33.884,21.228 33.884,69.907 
			26.64,69.907 17.869,45.22 17.836,69.907 		"/>
		<path fill="#FFFFFF" d="M60.806,35.917c0,0,1.688-14.887-11.006-15.053c-13.075-0.172-12.393,13.224-12.393,13.224
			s-0.397,7.27,6.678,13.471c7.08,6.2,8.108,7.198,7.975,11.384c-0.133,4.186-3.115,4.241-3.115,4.241s-3.936,0.185-3.57-8.009
			l-8.626-0.006c0,0-1.087,15.659,11.623,15.536C62.205,70.569,61.73,58.993,61.73,58.993s1.021-9.295-8.84-16.663
			c-9.103-6.805-7.542-14.691-3.156-14.091c3.755,0.512,3.249,7.698,3.249,7.698L60.806,35.917z"/>
		<polygon fill="#FFFFFF" points="85.22,28.805 85.22,21.196 64.922,21.196 64.922,69.94 74.825,69.94 74.825,49.53 82.181,49.522 
			82.181,41.116 74.825,41.132 74.825,28.819 		"/>
	</g>
</g>
</svg>
