<?xml version="1.0" encoding="utf-8"?>
<!-- Generator: Adobe Illustrator 16.0.0, SVG Export Plug-In . SVG Version: 6.00 Build 0)  -->
<!DOCTYPE svg PUBLIC "-//W3C//DTD SVG 1.1//EN" "http://www.w3.org/Graphics/SVG/1.1/DTD/svg11.dtd">
<svg version="1.1" id="圖層_1" xmlns="http://www.w3.org/2000/svg" xmlns:xlink="http://www.w3.org/1999/xlink" x="0px" y="0px"
	 width="92px" height="92px" viewBox="0 0 92 92" enable-background="new 0 0 92 92" xml:space="preserve">
<g>
	<path fill="#FFFFFF" d="M86.4,0H5.59C2.51,0,0,2.51,0,5.59v80.82C0,89.48,2.51,92,5.59,92H86.4c3.09,0,5.6-2.52,5.6-5.59V5.59
		C92,2.51,89.49,0,86.4,0z M23.2,4.62h63.2c0.47,0,0.869,0.35,0.939,0.8c-2.709-0.3-4.789-0.01-6.209,0.86L79.28,5.97
		c-4.069-0.7-7.09-0.55-9.03,0.45c-0.64-0.14-1.279-0.29-1.93-0.45c-4.359-1.06-7.54-0.86-9.48,0.58
		c-0.689-0.18-1.379-0.37-2.06-0.57c-4.49-1.34-7.75-1.21-9.681,0.38C46.67,6.24,46.23,6.11,45.78,5.98
		c-4.76-1.4-8.12-1.25-9.99,0.46c-0.16,0.14-0.3,0.3-0.43,0.45h-3.69v2.9h-1.36v23.55h1.36v1.88h2.19l-0.02,1.35
		c0,0.38-0.47,0.86-1.19,1.21h-2.48c-2.12-0.77-2.21-3.45-2.1-7.38c0.06-1.95,0.12-3.79-0.32-5.21c-0.95-3.08-2.6-4.27-4.55-4.77
		V4.62z M32.63,28.08V27.3h-0.81v-3.88h0.81v-9.64h4.26v9.64h0.14v3.88h-0.14v0.78H32.63z M33.87,33.34l-0.01,1.3h-1.61v-1.3H33.87z
		 M34.28,10.95h-1.65l-0.01-1.16h-0.37V7.47h2.71C34.17,8.81,34.21,10.3,34.28,10.95z M35,36.58l0.01-1.36h10l-0.02,1.79
		c-0.12,0.26-0.76,0.53-1.73,0.77h-8.73C34.83,37.4,35,36.99,35,36.58z M35.02,34.64l0.01-1.3h4.45V9.79H36.9v1.16h-1.45
		c-0.07-0.46-0.2-2.26,0.95-3.48h9.73c-0.5,0.79-0.72,1.63-0.8,2.32h-3.85v23.55H56.2l-0.01,1.28v0.02H46.18l0.01-1.28l-1.15-0.01
		l-0.02,1.29H35.02z M37.12,6.89c1.56-0.92,4.17-0.93,7.63,0H37.12z M46.14,37.05l0.03-1.83H56.18l-0.029,1.79
		c-0.29,0.27-1.26,0.54-2.68,0.77H45.85C46.08,37.51,46.14,37.25,46.14,37.05z M55.18,38.94h9.541
		c-2.811,0.36-7.211,0.58-12.08,0.59C53.631,39.35,54.48,39.15,55.18,38.94z M57.35,33.39v-0.05h10.531l-0.031,1.3h-10.5l0.021-1.25
		H57.35z M67.84,35.22l-0.039,2.56H57.17c0.1-0.17,0.131-0.34,0.131-0.46v-0.2l0.02-0.43l0.02-1.47H67.84z M68.53,39.04
		c0.05-0.03,0.08-0.07,0.12-0.1h10.311l-0.011,0.24c-1.12,0.97-9.84,1.44-20.12,1.38C63.78,40.33,67.57,39.83,68.53,39.04z
		 M68.95,37.78L69,35.22h10.03l-0.05,2.56H68.95z M69.01,34.64l0.021-1.3h10.04l-0.03,1.3H69.01z M43.81,28.08v-14.3h38.18v14.3
		H43.81z M49.12,6.89c-0.17-0.04-0.34-0.08-0.51-0.12c1.59-0.76,4.021-0.73,7.149,0.12H49.12z M57.79,7.47
		c0.03,0.01,0.06,0.02,0.091,0.03c-0.19,0.25-0.351,0.51-0.48,0.77c-2.1-0.19-3.92-0.45-5.68-0.8H57.79z M57,9.4
		c-0.14,0.66-0.15,1.23-0.13,1.56h-4.44l-0.049-1.17H46.5c0.09-0.66,0.34-1.47,0.93-2.14C50.561,8.5,53.381,9.05,57,9.4z
		 M60.641,6.89c1.55-0.57,3.75-0.57,6.5,0H60.641z M68.84,7.47c-0.199,0.23-0.369,0.46-0.5,0.7c-1.8-0.18-3.529-0.4-5.209-0.7H68.84
		z M63.07,8.64c-1.62-0.07-3.07-0.15-4.4-0.26c0.131-0.19,0.28-0.38,0.461-0.56C60.43,8.14,61.73,8.41,63.07,8.64z M67.801,9.94
		c-0.031,0.41,0,0.77,0.029,1.02h-9.8c-0.021-0.25-0.03-0.81,0.14-1.45C60.811,9.73,63.9,9.86,67.801,9.94z M72.57,6.89
		c-0.02,0-0.04,0-0.051-0.01c1.221-0.22,2.881-0.27,5.121,0.01H72.57z M79.84,7.47c-0.109,0.16-0.199,0.31-0.289,0.47
		c-1.131-0.12-2.34-0.27-3.61-0.47H79.84z M75.34,8.55c-1.979-0.04-3.859-0.13-5.66-0.27c0.011-0.02,0.031-0.04,0.051-0.06
		c0.18-0.2,0.41-0.4,0.699-0.58C72.141,8.01,73.78,8.31,75.34,8.55z M72.48,10.01v0.95H69c-0.029-0.16-0.09-0.53-0.039-1
		C70.07,9.98,71.23,9.99,72.48,10.01z M80.84,8.06c0.08-0.09,0.16-0.19,0.25-0.28c0.09-0.1,0.2-0.19,0.311-0.28l5.07,0.87
		C84.95,8.35,83.051,8.27,80.84,8.06z M23.2,21.63c1.51,0.48,2.71,1.51,3.44,3.9c0.38,1.23,0.33,2.99,0.28,4.84
		c-0.07,2.25-0.14,4.69,0.65,6.42c-0.94-1.19-1.4-2.86-1.72-4.64c0-0.03,0-0.06-0.01-0.09c-0.06-0.43-0.13-0.87-0.21-1.33
		c-0.01-0.02-0.01-0.04-0.01-0.06c-0.04-0.24-0.07-0.47-0.11-0.7c-0.29-2-0.55-3.89-1.28-5.23c-0.32-0.59-0.67-1.09-1.03-1.53V21.63
		z M23.2,26.95c0.07,0.37,0.12,0.77,0.15,1.18c0.06,0.79,0.17,1.67,0.35,2.56c-0.18-0.4-0.35-0.82-0.5-1.23V26.95z M23.2,33.94
		c0.65,1.61,1.42,2.93,2.24,3.84H23.2V33.94z M14.73,4.62h7.31v15.57c-0.77-0.11-1.56-0.15-2.37-0.2c-0.74-0.04-1.5-0.09-2.26-0.18
		c0.03-0.24,0.04-0.38,0.04-0.38l0.02-0.18h-0.51c-0.11-0.44-0.25-0.69-0.4-0.69c-0.36,0-0.64,1.35-0.64,3.03
		c0,1.67,0.28,3.03,0.64,3.03c0.17,0,0.33-0.35,0.46-0.93h0.45l-0.02-0.16c-0.02-0.17-0.04-0.33-0.06-0.49
		c0.87,0.03,2.66,0.43,3.65,2.82c0.13,0.96,0.37,1.92,0.68,2.88c0.09,0.52,0.2,1.03,0.32,1.52v7.77l-7.31,4.36V4.62z M20.78,21.22
		c0.44,0.03,0.85,0.08,1.26,0.14v0.68C21.62,21.71,21.2,21.43,20.78,21.22z M22.04,24.37v0.58c-0.07-0.34-0.16-0.65-0.28-0.93
		C21.86,24.13,21.95,24.25,22.04,24.37z M17.07,20.75c-0.02,0.25-0.02,0.54-0.02,0.85c0,0.08,0,0.18,0.02,0.27
		c-0.02,0.01-0.02,0.01,0,0.02c0,0.36,0.01,0.76,0.04,1.13v0.04c0.01,0.12,0.03,0.22,0.04,0.34h-0.48c-0.4-1.98-0.1-3.46-0.01-3.85
		h0.49c-0.01,0.11-0.03,0.27-0.05,0.48c0,0.13-0.01,0.27-0.02,0.43v0.25c-0.01,0.01-0.01,0.01-0.01,0.02c-0.02,0-0.03,0-0.04,0.02
		H17.07z M4.63,5.59c0-0.54,0.42-0.97,0.96-0.97h6.82V18.7H4.63V5.59z M4.63,24.69h7.78v20.22h16.47c-0.14,0.09-0.26,0.2-0.39,0.31
		H18.05c-0.19,0-0.36,0.1-0.46,0.23c-0.12,0.14-0.15,0.33-0.11,0.51c0,0.01,0.07,0.26,0.16,0.71H4.63V24.69z M36.78,47.46h0.01
		c-0.01,0.01-0.01,0.01,0,0.021c0,0.01,0,0.02,0.01,0.029c0,0.04,0.02,0.061,0.03,0.109c0.03,0.031,0.05,0.08,0.09,0.131
		c0,0,0,0.01,0.01,0.02c0.03,0.03,0.08,0.08,0.13,0.11V47.9c0,0,0.02,0,0.02-0.021c0.11,0.11,0.3,0.19,0.54,0.25
		c0.14,0.03,0.3,0.06,0.49,0.069h0.05h0.002v0.012h0.22c-0.063,0-0.119-0.004-0.175-0.012l3.713-0.01h2.27
		c0.34,0.01,0.63,0.28,0.63,0.631v1.609l-1.34,0.01h-1.2l-2.1,0.01h-1.45c-0.06,0-0.4,0.011-0.42,0.031
		c-0.19,0-0.37,0.02-0.52,0.039c-0.08,0.021-0.16,0.03-0.22,0.051c-0.14,0.039-0.24,0.069-0.33,0.129
		c-0.01,0.091-0.04,0.181-0.06,0.261c0,0.01-0.01,0.03-0.01,0.03c0,0.05-0.03,0.109-0.04,0.16c-0.03,0.119-0.08,0.239-0.12,0.35
		h-0.05c0.01,0.01,0.02,0.02,0.03,0.02c-0.05,0.17-0.12,0.33-0.21,0.49c-0.04,0.08-0.08,0.17-0.14,0.25
		c-0.07,0.13-0.16,0.25-0.25,0.37c-0.15,0.22-0.32,0.41-0.51,0.601c-0.16,0.159-0.33,0.31-0.52,0.449c-0.82,0.631-1.85,1-2.96,1
		h-0.06c-1.86-0.01-3.47-1.08-4.32-2.619c-0.05-0.111-0.11-0.24-0.16-0.371c-0.02-0.029-0.03-0.07-0.04-0.1
		c-0.08-0.16-0.14-0.34-0.19-0.52c-0.03-0.131-0.07-0.26-0.09-0.4c-0.14-0.061-0.31-0.109-0.54-0.15c0-0.01-0.02-0.02,0-0.039h-0.52
		c0,0,0,0-0.02,0V50.46h-0.04v0.021h-0.54l-5.82-0.021v-1.601c0-0.35,0.28-0.64,0.63-0.64l5.68-0.01h0.57
		c0-0.011,0.01-0.021,0.03-0.03c0.07-0.02,0.14-0.029,0.2-0.04c0.28-0.069,0.46-0.159,0.59-0.271c0.02,0,0.13-0.109,0.13-0.119
		c0.09-0.11,0.12-0.221,0.12-0.28c0.01-0.03,0.01-0.03,0.01-0.03c0.02,0,0.02,0,0-0.02c0.12-0.21,0.26-0.41,0.41-0.61
		c0.02-0.05,0.06-0.1,0.09-0.14c0.08-0.1,0.18-0.2,0.27-0.29c0.2-0.22,0.42-0.42,0.65-0.58c0.3-0.24,0.63-0.43,0.98-0.58
		c0.31-0.13,0.64-0.24,0.97-0.31c0.34-0.08,0.7-0.12,1.06-0.12c0.34,0,0.69,0.05,1.03,0.12c0.32,0.07,0.63,0.19,0.93,0.31
		c0.35,0.15,0.68,0.35,0.97,0.58c0.23,0.17,0.45,0.36,0.64,0.58c0.09,0.09,0.18,0.19,0.24,0.29c0.2,0.23,0.37,0.49,0.5,0.75v0.02
		C36.78,47.439,36.78,47.439,36.78,47.46z M37.33,46.38h4.11c0.02,0.08,0.06,0.18,0.09,0.29c0.05,0.14,0.09,0.3,0.14,0.49
		l-3.89,0.01c-0.08-0.17-0.17-0.34-0.27-0.5C37.46,46.57,37.39,46.47,37.33,46.38z M19.08,48.449c-0.08-0.729-0.17-1.33-0.25-1.779
		c-0.03-0.1-0.04-0.2-0.06-0.29h8.69c-0.07,0.09-0.13,0.19-0.19,0.29c-0.1,0.16-0.19,0.34-0.26,0.51l-6.32,0.01
		C19.91,47.189,19.26,47.72,19.08,48.449z M20.7,51.5l5.05,0.01h0.89l-0.07,0.29l-0.12,0.511l-0.1,0.43v0.02l-0.07,0.26h-0.42
		l-5.51,0.01l-0.41-0.91L19.65,51.5H20.7z M19.27,53.14l0.41,0.931l6.51-0.021c0.89,2.149,3,3.69,5.47,3.72h0.06
		c2.49-0.01,4.63-1.539,5.52-3.72l5.12-0.01c-0.09,1.38-0.34,2.85-0.84,4.35c-0.02,0.08-0.06,0.16-0.08,0.24H18.73
		c0.01-0.08,0.03-0.16,0.04-0.24C19.08,56.449,19.22,54.689,19.27,53.14z M27.32,54.029l0.2-0.859c1.07,1.52,2.83,2.529,4.81,2.55
		h0.07c1.2,0,2.34-0.37,3.28-1c-0.89,1.22-2.33,2.011-3.96,2.011h-0.06C29.76,56.71,28.12,55.609,27.32,54.029z M37.56,53.01
		c0.03-0.13,0.05-0.24,0.06-0.37c0.06-0.11,0.13-0.229,0.17-0.35c0.08-0.16,0.15-0.33,0.21-0.511c0.05-0.09,0.08-0.189,0.12-0.299
		l4.24-0.011l0.61-0.01h0.89l-0.14,0.31l-0.14,0.301l-0.09,0.209l-0.33,0.73H37.56z M87.37,86.41c0,0.529-0.44,0.959-0.97,0.959
		H5.59c-0.54,0-0.96-0.43-0.96-0.959V58.39h12.96c-0.04,0.229-0.07,0.479-0.12,0.72c-0.02,0.17,0.03,0.351,0.13,0.471
		c0.11,0.13,0.28,0.21,0.45,0.21h23.79c0.25,0,0.47-0.15,0.55-0.38c0.12-0.35,0.24-0.68,0.34-1.021h7.55
		c0.12-0.159,0.25-0.31,0.39-0.45c0.08-0.08,0.19-0.229,0.28-0.289c0.49-0.4,1.101-0.74,1.84-0.94c0.8-0.229,2-0.39,3.63-0.39h2.51
		c0.561,0,1.061,0.479,1.061,1.029v1.04h27.38V86.41z M87.37,46.67H42.76c-0.2-0.64-0.35-1.02-0.37-1.08
		c-0.09-0.22-0.3-0.37-0.55-0.37h-5.55c-0.13-0.11-0.27-0.22-0.41-0.31h51.49V46.67z M87.37,42.59H16.65l6.13-3.65h4.06
		c0.58,0.61,1.34,1.02,2.38,1.17c6.85,0.97,19.831,1.61,30.95,1.61c9.83,0,18.211-0.5,19.58-1.69c0.301-0.26,0.36-0.55,0.36-0.72
		l0.01-0.37h7.25V42.59z M87.37,37.78h-7.229l0.05-2.56h7.18V37.78z M87.37,34.64H80.2l0.03-1.3h4.359V10.05h2.78V34.64z
		 M87.37,6.89h-2.68l-1.36-0.23c1.09-0.24,2.439-0.26,4.04-0.07V6.89z"/>
	<polygon fill="#FFFFFF" points="32.248,23.707 32.111,23.707 32.111,27.006 32.248,27.006 32.631,27.006 36.738,27.006 
		36.738,23.707 32.631,23.707 	"/>
	<path fill="#FFFFFF" d="M26,71.676c-1.491-0.74-2.489-1.295-2.964-1.678c-0.486-0.393-0.775-0.74-0.867-1.064
		c-0.093-0.324-0.138-0.832-0.138-1.514c0-0.51,0.091-0.893,0.287-1.148c0.186-0.252,0.476-0.381,0.857-0.381
		c0.475,0,0.775,0.139,0.891,0.416c0.127,0.277,0.187,0.939,0.187,1.979V69.5h6.075v-1.309c0-1.121-0.07-1.955-0.185-2.486
		c-0.117-0.533-0.451-1.111-1.019-1.736c-0.558-0.625-1.366-1.123-2.407-1.504c-1.043-0.371-2.315-0.568-3.808-0.568
		c-1.505,0-2.823,0.232-3.958,0.695c-1.146,0.463-1.944,1.125-2.419,1.98c-0.474,0.854-0.716,2.186-0.716,3.979
		c0,1.273,0.218,2.363,0.658,3.287c0.438,0.916,1.668,1.945,3.692,3.078c2.394,1.332,3.714,2.141,3.98,2.408
		c0.242,0.266,0.371,0.947,0.371,2.023c0,0.775-0.093,1.285-0.29,1.529c-0.185,0.242-0.533,0.369-1.019,0.369
		c-0.448,0-0.753-0.184-0.903-0.543s-0.231-1.146-0.231-2.359v-1.426H16v1.088c0,1.875,0.233,3.275,0.695,4.201
		s1.32,1.666,2.56,2.211c1.236,0.543,2.729,0.809,4.465,0.809c1.575,0,2.916-0.254,4.027-0.752c1.124-0.496,1.922-1.225,2.396-2.15
		c0.475-0.939,0.703-2.314,0.703-4.154c0-1.635-0.311-2.883-0.933-3.75C29.298,73.563,27.991,72.648,26,71.676z"/>
	<path fill="#FFFFFF" d="M45.36,63.14c-1.18-0.829-2.93-1.239-5.24-1.239c-1.95,0-3.51,0.369-4.72,1.09
		c-1.22,0.729-2.02,1.56-2.42,2.5c-0.41,0.939-0.6,2.289-0.6,4.029v1.51h6.43V68.67c0-1.25,0.06-2.03,0.16-2.33
		c0.12-0.3,0.41-0.45,0.87-0.45c0.41,0,0.7,0.171,0.88,0.53c0.17,0.359,0.25,1.13,0.25,2.3c0,0.94-0.06,1.57-0.23,1.87
		c-0.16,0.3-1.36,0.9-3.61,1.779c-2.1,0.811-3.42,1.531-3.95,2.141c-0.54,0.6-0.8,1.76-0.8,3.439V79.8c0,2.28,0.49,3.75,1.5,4.42
		c1,0.67,2.09,1.011,3.3,1.011c0.91,0,1.7-0.201,2.37-0.601c0.66-0.41,1.19-1.011,1.61-1.81v2h6.68V73.529
		c0-3.729-0.129-6.18-0.359-7.379C47.23,64.949,46.53,63.96,45.36,63.14z M40.97,78.75c0,1.13-0.05,1.83-0.18,2.09
		c-0.14,0.27-0.42,0.41-0.84,0.41c-0.45,0-0.76-0.18-0.92-0.51c-0.15-0.351-0.22-1.101-0.22-2.26c0-1.021,0.08-1.801,0.26-2.351
		c0.17-0.53,0.82-1.21,1.9-2.011V78.75z"/>
	<path fill="#FFFFFF" d="M53.04,57.66c-0.61,0.17-1.1,0.41-1.489,0.729c-0.07,0.05-0.141,0.101-0.19,0.16
		c-0.41,0.39-0.66,0.84-0.761,1.33c-0.1,0.5-0.149,1.479-0.149,2.97h-1.41v3.561h1.41v18.41h6.851V66.41h1.629V62.85h-2.89v-0.71
		c0-0.61,0.13-0.979,0.4-1.11C56.68,60.9,57.51,60.83,58.93,60.83v-3.48h-2.51C54.9,57.35,53.78,57.449,53.04,57.66z"/>
	<path fill="#FFFFFF" d="M61.67,82.88c0.62,0.729,1.48,1.31,2.59,1.72c1.11,0.42,2.381,0.631,3.83,0.631
		c1.49,0,2.74-0.211,3.721-0.641c1-0.41,1.81-1.05,2.459-1.91c0.65-0.84,1.051-1.64,1.221-2.38c0.18-0.76,0.27-1.819,0.27-3.21
		v-1.67h-6.49v2.97c0,1.12-0.09,1.87-0.27,2.271c-0.17,0.39-0.52,0.59-1.039,0.59c-0.431,0-0.701-0.15-0.851-0.45
		c-0.149-0.29-0.22-0.95-0.22-1.96v-4.87h8.869V70.98c0-2.19-0.25-3.871-0.75-5.08c-0.51-1.211-1.39-2.181-2.64-2.9
		c-1.25-0.73-2.84-1.1-4.76-1.1c-1.57,0-2.96,0.299-4.16,0.91c-1.22,0.6-2.09,1.469-2.62,2.619c-0.529,1.131-0.8,2.68-0.8,4.65v6.56
		c0,1.681,0.12,2.95,0.36,3.83S61.051,82.15,61.67,82.88z M66.891,68.66c0-1.28,0.05-2.051,0.17-2.34
		c0.119-0.291,0.4-0.431,0.88-0.431c0.38,0,0.64,0.16,0.76,0.511c0.13,0.33,0.19,1.09,0.19,2.26v1.64h-2V68.66z"/>
	<polygon fill="#FFFFFF" points="62.41,15.372 58.664,21.648 63.504,21.648 61.299,26.411 67.014,19.204 61.646,19.182 	"/>
</g>
</svg>
